<svg width="20" height="20" viewBox="0 0 20 20" fill="none" xmlns="http://www.w3.org/2000/svg">
<path d="M16.6537 8.32701C16.6537 12.4846 12.0414 16.8146 10.4926 18.1519C10.3483 18.2604 10.1727 18.319 9.99217 18.319C9.81165 18.319 9.63601 18.2604 9.49173 18.1519C7.94293 16.8146 3.33069 12.4846 3.33069 8.32701C3.33069 6.56028 4.03252 4.8659 5.28179 3.61663C6.53106 2.36736 8.22544 1.66553 9.99217 1.66553C11.7589 1.66553 13.4533 2.36736 14.7026 3.61663C15.9518 4.8659 16.6537 6.56028 16.6537 8.32701Z" stroke="#FB2C36" stroke-width="1.66537" stroke-linecap="round" stroke-linejoin="round"/>
<path d="M9.9922 10.8247C11.3718 10.8247 12.4903 9.70631 12.4903 8.32667C12.4903 6.94703 11.3718 5.82861 9.9922 5.82861C8.61256 5.82861 7.49414 6.94703 7.49414 8.32667C7.49414 9.70631 8.61256 10.8247 9.9922 10.8247Z" stroke="#FB2C36" stroke-width="1.66537" stroke-linecap="round" stroke-linejoin="round"/>
</svg>
