<svg width="24" height="24" viewBox="0 0 24 24" fill="none" xmlns="http://www.w3.org/2000/svg">
<path d="M10.9982 21.7267C11.3022 21.9022 11.647 21.9946 11.9981 21.9946C12.3491 21.9946 12.6939 21.9022 12.9979 21.7267L19.9968 17.7274C20.3005 17.552 20.5527 17.2999 20.7282 16.9963C20.9037 16.6927 20.9962 16.3483 20.9966 15.9976V7.99894C20.9962 7.64827 20.9037 7.30386 20.7282 7.00026C20.5527 6.69666 20.3005 6.44455 19.9968 6.26921L12.9979 2.26986C12.6939 2.09435 12.3491 2.00195 11.9981 2.00195C11.647 2.00195 11.3022 2.09435 10.9982 2.26986L3.99935 6.26921C3.69566 6.44455 3.44342 6.69666 3.26793 7.00026C3.09244 7.30386 2.99987 7.64827 2.99951 7.99894V15.9976C2.99987 16.3483 3.09244 16.6927 3.26793 16.9963C3.44342 17.2999 3.69566 17.552 3.99935 17.7274L10.9982 21.7267Z" stroke="#F54900" stroke-width="1.99968" stroke-linecap="round" stroke-linejoin="round"/>
<path d="M11.998 21.9964V11.998" stroke="#F54900" stroke-width="1.99968" stroke-linecap="round" stroke-linejoin="round"/>
<path d="M3.28943 6.99902L11.998 11.9982L20.7066 6.99902" stroke="#F54900" stroke-width="1.99968" stroke-linecap="round" stroke-linejoin="round"/>
<path d="M7.49878 4.26953L16.4973 9.4187" stroke="#F54900" stroke-width="1.99968" stroke-linecap="round" stroke-linejoin="round"/>
</svg>
