<svg width="20" height="20" viewBox="0 0 20 20" fill="none" xmlns="http://www.w3.org/2000/svg">
<path d="M18.3191 14.0893V16.5873C18.32 16.8192 18.2725 17.0488 18.1796 17.2613C18.0867 17.4737 17.9505 17.6645 17.7796 17.8213C17.6087 17.978 17.4069 18.0974 17.1873 18.1717C16.9676 18.246 16.7348 18.2736 16.5038 18.2527C13.9415 17.9743 11.4802 17.0987 9.31776 15.6964C7.30585 14.4179 5.6001 12.7122 4.32165 10.7002C2.91439 8.52794 2.03863 6.05469 1.7653 3.48086C1.7445 3.2506 1.77186 3.01852 1.84566 2.79941C1.91946 2.5803 2.03807 2.37896 2.19394 2.2082C2.34982 2.03745 2.53954 1.90102 2.75103 1.8076C2.96252 1.71418 3.19114 1.66583 3.42235 1.66561H5.9204C6.32451 1.66163 6.71628 1.80473 7.02268 2.06824C7.32908 2.33175 7.52922 2.69768 7.58577 3.09783C7.69121 3.89726 7.88675 4.6822 8.16865 5.43767C8.28069 5.73571 8.30493 6.05962 8.23852 6.37101C8.17211 6.68241 8.01782 6.96824 7.79395 7.19464L6.73644 8.25215C7.92181 10.3368 9.64788 12.0629 11.7325 13.2483L12.7901 12.1908C13.0165 11.9669 13.3023 11.8126 13.6137 11.7462C13.9251 11.6798 14.249 11.704 14.547 11.816C15.3025 12.0979 16.0874 12.2935 16.8869 12.3989C17.2914 12.456 17.6608 12.6597 17.9248 12.9714C18.1889 13.2831 18.3292 13.6809 18.3191 14.0893Z" stroke="#00A63E" stroke-width="1.66537" stroke-linecap="round" stroke-linejoin="round"/>
</svg>
