<svg width="64" height="64" viewBox="0 0 64 64" fill="none" xmlns="http://www.w3.org/2000/svg">
<g opacity="0.5">
<path d="M18.6618 7.99805H10.6639C9.19152 7.99805 7.99792 9.19165 7.99792 10.664V18.662C7.99792 20.1343 9.19152 21.3279 10.6639 21.3279H18.6618C20.1342 21.3279 21.3278 20.1343 21.3278 18.662V10.664C21.3278 9.19165 20.1342 7.99805 18.6618 7.99805Z" stroke="white" stroke-width="5.33196" stroke-linecap="round" stroke-linejoin="round"/>
<path d="M53.3196 7.99805H45.3216C43.8492 7.99805 42.6556 9.19165 42.6556 10.664V18.662C42.6556 20.1343 43.8492 21.3279 45.3216 21.3279H53.3196C54.7919 21.3279 55.9855 20.1343 55.9855 18.662V10.664C55.9855 9.19165 54.7919 7.99805 53.3196 7.99805Z" stroke="white" stroke-width="5.33196" stroke-linecap="round" stroke-linejoin="round"/>
<path d="M18.6618 42.6558H10.6639C9.19152 42.6558 7.99792 43.8494 7.99792 45.3217V53.3197C7.99792 54.7921 9.19152 55.9857 10.6639 55.9857H18.6618C20.1342 55.9857 21.3278 54.7921 21.3278 53.3197V45.3217C21.3278 43.8494 20.1342 42.6558 18.6618 42.6558Z" stroke="white" stroke-width="5.33196" stroke-linecap="round" stroke-linejoin="round"/>
<path d="M55.9855 42.6558H47.9876C46.5735 42.6558 45.2173 43.2175 44.2173 44.2175C43.2174 45.2174 42.6556 46.5736 42.6556 47.9877V55.9857" stroke="white" stroke-width="5.33196" stroke-linecap="round" stroke-linejoin="round"/>
<path d="M55.9856 55.9854V56.012" stroke="white" stroke-width="5.33196" stroke-linecap="round" stroke-linejoin="round"/>
<path d="M31.9918 18.6616V26.6596C31.9918 28.0737 31.43 29.4299 30.4301 30.4298C29.4301 31.4298 28.0739 31.9915 26.6598 31.9915H18.6619" stroke="white" stroke-width="5.33196" stroke-linecap="round" stroke-linejoin="round"/>
<path d="M7.99792 31.9917H8.02458" stroke="white" stroke-width="5.33196" stroke-linecap="round" stroke-linejoin="round"/>
<path d="M31.9917 7.99805H32.0184" stroke="white" stroke-width="5.33196" stroke-linecap="round" stroke-linejoin="round"/>
<path d="M31.9917 42.6558V42.6824" stroke="white" stroke-width="5.33196" stroke-linecap="round" stroke-linejoin="round"/>
<path d="M42.6556 31.9917H45.3216" stroke="white" stroke-width="5.33196" stroke-linecap="round" stroke-linejoin="round"/>
<path d="M55.9856 31.9917V32.0184" stroke="white" stroke-width="5.33196" stroke-linecap="round" stroke-linejoin="round"/>
<path d="M31.9917 55.9858V53.3198" stroke="white" stroke-width="5.33196" stroke-linecap="round" stroke-linejoin="round"/>
</g>
</svg>
