<svg width="20" height="20" viewBox="0 0 20 20" fill="none" xmlns="http://www.w3.org/2000/svg">
<path d="M11.7459 4.6241C11.977 4.73961 12.2319 4.79974 12.4903 4.79974C12.7487 4.79974 13.0035 4.73961 13.2347 4.6241L16.2815 3.10029C16.4085 3.0368 16.5497 3.00687 16.6916 3.01333C16.8335 3.01979 16.9713 3.06243 17.0921 3.1372C17.2128 3.21197 17.3124 3.31638 17.3815 3.44051C17.4505 3.56463 17.4866 3.70435 17.4864 3.84637V14.4748C17.4863 14.6294 17.4432 14.7809 17.3619 14.9124C17.2805 15.0438 17.1642 15.1501 17.0259 15.2192L13.2347 17.1152C13.0035 17.2307 12.7487 17.2909 12.4903 17.2909C12.2319 17.2909 11.977 17.2307 11.7459 17.1152L8.23858 15.3616C8.00743 15.2461 7.75257 15.1859 7.49416 15.1859C7.23576 15.1859 6.98089 15.2461 6.74974 15.3616L3.70295 16.8854C3.57584 16.9489 3.43459 16.9788 3.29264 16.9723C3.1507 16.9658 3.01278 16.9231 2.89201 16.8483C2.77124 16.7734 2.67163 16.6689 2.60267 16.5446C2.53372 16.4204 2.4977 16.2806 2.49805 16.1385V5.51091C2.49813 5.35631 2.54125 5.20479 2.62258 5.07331C2.70391 4.94183 2.82023 4.83559 2.95852 4.76649L6.74974 2.87046C6.98089 2.75496 7.23576 2.69482 7.49416 2.69482C7.75257 2.69482 8.00743 2.75496 8.23858 2.87046L11.7459 4.6241Z" stroke="white" stroke-width="1.66537" stroke-linecap="round" stroke-linejoin="round"/>
<path d="M12.4903 4.7998V17.2901" stroke="white" stroke-width="1.66537" stroke-linecap="round" stroke-linejoin="round"/>
<path d="M7.49417 2.69434V15.1846" stroke="white" stroke-width="1.66537" stroke-linecap="round" stroke-linejoin="round"/>
</svg>
